<?xml version="1.0" encoding="utf-8"?>
<!-- Generator: Adobe Illustrator 16.0.0, SVG Export Plug-In . SVG Version: 6.00 Build 0)  -->
<!DOCTYPE svg PUBLIC "-//W3C//DTD SVG 1.1//EN" "http://www.w3.org/Graphics/SVG/1.1/DTD/svg11.dtd">
<svg version="1.1" id="Layer_1" xmlns="http://www.w3.org/2000/svg" xmlns:xlink="http://www.w3.org/1999/xlink" x="0px" y="0px"
	 width="330.5px" height="115px" viewBox="0 0 330.5 115" enable-background="new 0 0 330.5 115" xml:space="preserve">
<g>
	<g>
		<path fill="none" d="M200.986,38.81c-0.476-0.624-1.065-1.132-1.77-1.519c-0.705-0.387-1.514-0.579-2.427-0.579
			c-0.934,0-1.767,0.168-2.501,0.506c-0.735,0.338-1.363,0.797-1.89,1.383c-0.527,0.585-0.929,1.271-1.206,2.056
			c-0.278,0.785-0.417,1.612-0.417,2.484c0,0.835,0.118,1.668,0.356,2.501c0.238,0.835,0.595,1.588,1.073,2.264
			c0.476,0.676,1.064,1.218,1.771,1.636c0.705,0.42,1.522,0.627,2.457,0.627c0.931,0,1.77-0.184,2.517-0.551
			c0.743-0.368,1.374-0.862,1.888-1.488c0.518-0.625,0.914-1.345,1.191-2.159c0.278-0.813,0.418-1.657,0.418-2.529
			c0-0.855-0.125-1.683-0.373-2.487C201.823,40.151,201.463,39.435,200.986,38.81z"/>
		<path fill="none" d="M237.711,36.219c-0.568-0.764-1.288-1.378-2.16-1.845c-0.873-0.465-1.914-0.718-3.127-0.759l-1.19,18.458
			c1.19-0.178,2.273-0.571,3.245-1.178c0.972-0.604,1.812-1.347,2.516-2.23c0.705-0.884,1.25-1.867,1.637-2.947
			c0.387-1.083,0.601-2.199,0.642-3.35V41.95c0.018-1.07-0.095-2.101-0.344-3.096C238.682,37.863,238.274,36.984,237.711,36.219z"/>
		<polygon fill="none" points="286.043,47.19 290.509,47.19 288.246,36.83 		"/>
		<polygon fill="#010101" points="145.493,20.277 118.818,20.277 118.938,32.247 133.168,31.175 117.628,51.417 118.818,63.088 
			145.374,62.018 145.553,49.393 132.394,49.393 146.028,30.995 		"/>
		<path fill="#010101" d="M164.363,36.634c0.964-0.751,2.074-1.308,3.329-1.674s2.574-0.547,3.961-0.547
			c0.543,0,1.086,0.028,1.629,0.083c0.544,0.056,1.085,0.161,1.629,0.311l1.574-11.854c-1.162-0.56-2.42-0.945-3.777-1.15
			c-1.359-0.208-2.684-0.31-3.976-0.31c-3.428,0-6.458,0.617-9.087,1.854c-2.631,1.237-4.836,2.922-6.615,5.057
			c-1.78,2.135-3.129,4.621-4.044,7.459c-0.919,2.836-1.376,5.857-1.376,9.059c0,2.416,0.434,4.668,1.305,6.754
			c0.87,2.089,2.064,3.902,3.582,5.436c1.517,1.535,3.305,2.744,5.366,3.623c2.06,0.88,4.279,1.32,6.657,1.32
			c0.824,0,1.686-0.056,2.585-0.169c0.898-0.112,1.797-0.274,2.695-0.489c0.898-0.217,1.774-0.469,2.628-0.761
			c0.852-0.288,1.644-0.622,2.372-0.995l1.125-13.202c-0.582,0.337-1.218,0.665-1.91,0.982c-0.693,0.319-1.404,0.602-2.135,0.844
			c-0.73,0.245-1.472,0.441-2.22,0.589c-0.747,0.151-1.47,0.227-2.163,0.227c-0.918,0-1.759-0.115-2.528-0.338
			c-0.768-0.225-1.433-0.571-1.994-1.04c-0.562-0.469-0.998-1.059-1.306-1.768c-0.309-0.713-0.464-1.556-0.464-2.529
			c0-1.516,0.286-2.837,0.857-3.96C162.63,38.32,163.4,37.381,164.363,36.634z"/>
		<path fill="#010101" d="M209.556,29.644c-1.575-1.558-3.477-2.754-5.705-3.596c-2.229-0.837-4.695-1.258-7.398-1.258
			c-1.679,0-3.272,0.234-4.783,0.699c-1.511,0.466-2.914,1.12-4.209,1.957c-1.297,0.841-2.468,1.837-3.512,2.994
			c-1.043,1.156-1.933,2.426-2.67,3.804c-0.738,1.381-1.301,2.848-1.693,4.406c-0.391,1.556-0.588,3.148-0.588,4.771
			c0,1.658,0.211,3.252,0.63,4.781c0.42,1.531,1.007,2.959,1.763,4.292c0.757,1.335,1.668,2.547,2.74,3.637
			c1.074,1.09,2.271,2.025,3.595,2.797c1.325,0.777,2.746,1.377,4.266,1.804c1.52,0.431,3.118,0.645,4.798,0.645
			c1.732,0,3.373-0.228,4.922-0.688c1.547-0.455,2.979-1.095,4.294-1.915c1.313-0.818,2.498-1.805,3.552-2.951
			c1.054-1.145,1.947-2.408,2.686-3.79c0.736-1.378,1.3-2.856,1.692-4.432c0.391-1.578,0.587-3.212,0.587-4.91
			c0-2.722-0.435-5.188-1.3-7.396C212.353,33.084,211.13,31.201,209.556,29.644z M201.71,45.795c-0.262,0.764-0.634,1.44-1.12,2.027
			c-0.484,0.587-1.075,1.054-1.774,1.401c-0.7,0.343-1.487,0.517-2.363,0.517s-1.646-0.197-2.309-0.588
			c-0.661-0.391-1.216-0.902-1.662-1.536c-0.448-0.635-0.784-1.345-1.008-2.126c-0.224-0.784-0.336-1.567-0.336-2.348
			c0-0.822,0.132-1.6,0.392-2.337c0.262-0.735,0.638-1.38,1.134-1.931c0.492-0.549,1.085-0.981,1.775-1.298
			c0.69-0.315,1.473-0.476,2.35-0.476c0.857,0,1.617,0.181,2.28,0.544c0.66,0.362,1.216,0.84,1.663,1.426
			c0.447,0.587,0.787,1.26,1.02,2.016c0.234,0.755,0.352,1.532,0.352,2.335C202.102,44.24,201.972,45.03,201.71,45.795z"/>
		<path fill="#010101" d="M245.168,27.429c-1.599-1.495-3.507-2.634-5.715-3.427c-2.21-0.791-4.633-1.188-7.265-1.188
			c-2.117,0-4.249,0.135-6.394,0.401c-2.146,0.268-4.23,0.723-6.255,1.367l-0.774,37.063c0.865,0.091,1.714,0.161,2.541,0.205
			c0.829,0.048,1.674,0.07,2.54,0.07c2.32,0,4.581-0.18,6.782-0.539c2.199-0.359,4.276-0.911,6.228-1.656
			c1.949-0.747,3.747-1.699,5.383-2.859c1.64-1.16,3.054-2.545,4.242-4.155c1.187-1.613,2.111-3.453,2.775-5.526
			c0.663-2.07,0.994-4.395,0.994-6.971c0-2.725-0.447-5.166-1.341-7.318C248.02,30.74,246.772,28.92,245.168,27.429z
			 M238.929,42.368c-0.039,1.068-0.236,2.104-0.595,3.107c-0.359,1.002-0.866,1.914-1.52,2.734
			c-0.654,0.817-1.434,1.508-2.334,2.069c-0.902,0.563-1.905,0.925-3.009,1.093l1.104-17.124c1.123,0.037,2.091,0.272,2.9,0.704
			c0.809,0.433,1.477,1.004,2.003,1.713c0.523,0.708,0.901,1.522,1.131,2.441c0.231,0.922,0.336,1.879,0.319,2.875V42.368z"/>
		<g>
			<polygon fill="none" points="286.043,47.19 290.509,47.19 288.246,36.83 			"/>
			<polygon fill="#010101" points="253.504,22.6 253.504,62.97 266.065,62.314 269.34,21.767 			"/>
			<path fill="#010101" d="M296.522,21.053l-16.552,0.833l-11.85,39.655l15.184,1.488l1.488-6.727h6.786l1.787,6.727l14.769-1.904
				L296.522,21.053z M286.043,47.19l2.203-10.36l2.263,10.36H286.043z"/>
		</g>
	</g>
	<g>
		<path fill="#010101" d="M134.301,95.786h-3.351V93.52c-1.09,1.512-2.758,2.267-5.006,2.267c-2.286,0-4.243-0.812-5.873-2.433
			c-1.629-1.624-2.443-3.585-2.443-5.883c0-2.301,0.814-4.274,2.443-5.924c1.628-1.648,3.587-2.474,5.873-2.474
			c2.024,0,3.693,0.771,5.006,2.307v-2.307h3.351V95.786z M130.95,87.471c0-1.368-0.492-2.544-1.478-3.529
			c-0.984-0.985-2.161-1.479-3.528-1.479c-1.353,0-2.519,0.493-3.498,1.479c-0.978,0.985-1.468,2.161-1.468,3.529
			c0,1.365,0.486,2.528,1.459,3.486c0.972,0.958,2.142,1.438,3.507,1.438c1.367,0,2.543-0.482,3.528-1.448
			C130.458,89.983,130.95,88.823,130.95,87.471z"/>
		<path fill="#010101" d="M155.329,87.43c0,2.418-0.832,4.481-2.493,6.188c-1.662,1.709-3.669,2.562-6.021,2.562
			c-2.299,0-4.236-0.978-5.813-2.936v11.686h-3.272V79.073h3.272v2.543c1.577-1.958,3.514-2.938,5.813-2.938
			c2.352,0,4.358,0.855,6.021,2.562C154.497,82.95,155.329,85.013,155.329,87.43z M151.978,87.421c0-1.522-0.528-2.813-1.586-3.875
			c-1.058-1.063-2.335-1.595-3.833-1.595s-2.772,0.531-3.823,1.595c-1.052,1.063-1.576,2.353-1.576,3.875
			c0,1.521,0.524,2.817,1.576,3.885c1.052,1.068,2.325,1.604,3.823,1.604s2.775-0.535,3.833-1.604
			C151.449,90.238,151.978,88.941,151.978,87.421z"/>
		<path fill="#010101" d="M175.154,87.43c0,2.418-0.832,4.481-2.493,6.188c-1.662,1.709-3.669,2.562-6.021,2.562
			c-2.299,0-4.237-0.978-5.813-2.936v11.686h-3.272V79.073h3.272v2.543c1.576-1.958,3.514-2.938,5.813-2.938
			c2.352,0,4.359,0.855,6.021,2.562C174.322,82.95,175.154,85.013,175.154,87.43z M171.803,87.421c0-1.522-0.527-2.813-1.586-3.875
			c-1.059-1.063-2.336-1.595-3.833-1.595c-1.499,0-2.772,0.531-3.824,1.595c-1.051,1.063-1.576,2.353-1.576,3.875
			c0,1.521,0.525,2.817,1.576,3.885c1.053,1.068,2.325,1.604,3.824,1.604c1.497,0,2.774-0.535,3.833-1.604
			C171.273,90.238,171.803,88.941,171.803,87.421z"/>
		<path fill="#010101" d="M193.699,95.786h-3.352V93.52c-1.09,1.512-2.758,2.267-5.006,2.267c-2.285,0-4.243-0.812-5.872-2.433
			c-1.629-1.625-2.443-3.585-2.443-5.883c0-2.301,0.814-4.274,2.443-5.924c1.629-1.648,3.587-2.474,5.872-2.474
			c2.025,0,3.693,0.771,5.006,2.307v-2.307h3.352V95.786z M190.347,87.471c0-1.368-0.491-2.544-1.478-3.529s-2.16-1.479-3.527-1.479
			c-1.353,0-2.52,0.493-3.499,1.479c-0.979,0.985-1.467,2.161-1.467,3.529c0,1.365,0.487,2.528,1.459,3.486s2.141,1.438,3.507,1.438
			s2.541-0.482,3.527-1.448C189.855,89.983,190.347,88.823,190.347,87.471z"/>
		<path fill="#010101" d="M207.611,79.074l-1.303,3.726c-0.432-0.171-0.898-0.257-1.397-0.257c-1.196,0-2.2,0.519-3.015,1.557
			c-0.737,0.973-1.104,2.069-1.104,3.291v8.396h-3.39V79.074h3.39v3.43c1.13-2.471,2.851-3.704,5.164-3.704
			C206.455,78.799,207.006,78.891,207.611,79.074z"/>
		<path fill="#010101" d="M224.204,87.45c0,0.407-0.033,0.821-0.1,1.24h-12.572c0.264,1.065,0.829,1.949,1.694,2.652
			c0.867,0.703,1.84,1.054,2.918,1.054c2.483,0,4.236-0.854,5.262-2.562l2.561,2.069c-1.931,2.589-4.539,3.882-7.822,3.882
			c-2.247,0-4.152-0.824-5.716-2.473c-1.563-1.65-2.345-3.604-2.345-5.862c0-2.26,0.781-4.221,2.345-5.883
			c1.563-1.663,3.47-2.494,5.716-2.494c2.247,0,4.15,0.831,5.713,2.494C223.423,83.229,224.204,85.19,224.204,87.45z
			 M220.717,85.991c-0.303-1.012-0.877-1.853-1.725-2.523c-0.848-0.669-1.797-1.005-2.848-1.005c-1.039,0-1.984,0.336-2.838,1.005
			c-0.854,0.671-1.432,1.512-1.733,2.523H220.717z"/>
		<path fill="#010101" d="M230.176,95.786h-3.271V66.758h3.271V95.786z"/>
		<path fill="#010101" d="M247.202,90.978c0,1.668-0.702,2.948-2.108,3.844c-1.195,0.774-2.674,1.163-4.434,1.163
			c-1.511,0-3.022-0.322-4.533-0.966c-1.563-0.672-2.812-1.557-3.744-2.66l2.148-2.386c1.918,1.826,3.961,2.739,6.129,2.739
			c1.918,0,2.877-0.59,2.877-1.773c0-0.788-0.866-1.386-2.603-1.793c-2.653-0.617-4.263-1.064-4.827-1.341
			c-1.72-0.84-2.581-2.186-2.581-4.038c0-1.629,0.688-2.918,2.069-3.862c1.209-0.815,2.666-1.224,4.374-1.224
			c2.721,0,5.132,0.821,7.232,2.464l-1.695,2.367c-1.838-1.157-3.697-1.736-5.576-1.736c-0.645,0-1.229,0.165-1.753,0.492
			c-0.605,0.382-0.907,0.881-0.907,1.499c0,0.762,0.86,1.365,2.581,1.812c2.642,0.709,4.23,1.197,4.77,1.459
			C246.343,87.902,247.202,89.217,247.202,90.978z"/>
	</g>
	<g>
		<polygon fill="#010101" points="26.676,96.55 56.031,96.55 103.335,23.536 103.335,20.006 73.98,20.006 26.676,92.72 		"/>
		<polygon fill="#010101" points="26.676,69.042 26.676,20.006 58.809,20.006 		"/>
		<polygon fill="#010101" points="100.438,51.932 71.203,96.55 81.897,96.55 90.47,83.465 99.044,96.55 100.438,96.55 
			102.107,96.55 103.335,96.55 103.335,56.354 		"/>
	</g>
</g>
<g>
</g>
<g>
</g>
<g>
</g>
<g>
</g>
<g>
</g>
<g>
</g>
</svg>
